<svg width="350" height="600" xmlns="http://www.w3.org/2000/svg">
 <metadata id="metadata8">image/svg+xml</metadata>
 <defs>
  <clipPath id="clipPath22" clipPathUnits="userSpaceOnUse">
   <path id="path20" d="m-108.75001,468.632l464.882,0l0,-464.882l-464.882,0l0,464.882z"/>
  </clipPath>
 </defs>
 <g>
  <title>background</title>
  <rect fill="none" id="canvas_background" height="602" width="352" y="-1" x="-1"/>
 </g>
 <g>
  <title>Layer 1</title>
  <g transform="matrix(1.33333, 0, 0, -1.33333, 0, 619.843)" id="g10">
   <path fill="#000000" fill-rule="nonzero" id="path12" d="m5.03399,41.511l2.41,0l0,25.765l-2.41,0l0,-25.765z"/>
   <path fill="#000000" fill-rule="nonzero" id="path14" d="m12.90699,41.511l2.41,0l0,14.408l-2.41,0l0,-14.408z"/>
   <g id="g16">
    <g clip-path="url(#clipPath22)" id="g18">
     <g id="g24">
      <path fill="#000000" fill-rule="nonzero" id="path26" d="m12.896,61.5853c0.681,-0.701 1.766,-0.703 2.43,-0.004c0.349,0.36 0.517,0.779 0.517,1.286c0,0.504 -0.166,0.917 -0.51,1.261c-0.345,0.355 -0.746,0.527 -1.228,0.527c-0.471,0 -0.867,-0.172 -1.209,-0.522c-0.345,-0.356 -0.513,-0.765 -0.513,-1.25c0,-0.518 0.168,-0.943 0.513,-1.298"/>
     </g>
     <g id="g28">
      <path fill="#000000" fill-rule="nonzero" id="path30" d="m26.9026,54.2013c1.242,0 2.128,-0.378 2.633,-1.122c0.475,-0.673 0.708,-1.808 0.708,-3.459l0,-8.11l2.426,0l0,8.952c0,2.039 -0.381,3.508 -1.134,4.367c-0.883,1.023 -2.089,1.518 -3.691,1.518c-1.387,0 -2.606,-0.556 -3.727,-1.7l-0.911,-0.928l0,2.199l-2.426,0l0,-14.408l2.426,0l0,6.934c0,2.046 0.258,3.462 0.788,4.328c0.586,0.948 1.564,1.429 2.908,1.429"/>
     </g>
     <g id="g32">
      <path fill="#000000" fill-rule="nonzero" id="path34" d="m49.89869,47.491l0,8.427l-2.41,0l0,-8.347c0,-3.617 -1.893,-4.376 -3.481,-4.376c-1.587,0 -3.48,0.759 -3.48,4.376l0,8.347l-2.41,0l0,-8.427c0,-1.344 0.132,-2.356 0.394,-3.01c0.272,-0.732 0.738,-1.395 1.39,-1.979c1.082,-0.966 2.425,-1.436 4.106,-1.436c1.692,0 3.04,0.47 4.123,1.437c0.638,0.579 1.094,1.24 1.351,1.959c0.275,0.83 0.417,1.853 0.417,3.029"/>
     </g>
     <g id="g36">
      <path fill="#000000" fill-rule="nonzero" id="path38" d="m66.2384,41.5105l2.796,0l-6.032,7.843l5.14,6.565l-2.906,0l-3.68,-4.866l-3.613,4.866l-2.798,0l5.005,-6.577l-6.254,-7.831l2.882,0l4.787,6.12l4.673,-6.12z"/>
     </g>
     <g id="g40">
      <path fill="#000000" fill-rule="nonzero" id="path42" d="m72.62429,51.7161c-0.398,-0.939 -0.6,-1.996 -0.6,-3.14c0,-1.141 0.21,-2.183 0.624,-3.099c0.417,-0.924 0.981,-1.726 1.677,-2.387c0.695,-0.659 1.51,-1.173 2.423,-1.525c1.815,-0.703 3.834,-0.774 6.091,0.155l0,3.273c-1.222,-0.668 -2.664,-0.76 -3.87,-0.273c-0.512,0.206 -0.961,0.505 -1.335,0.888c-0.367,0.378 -0.66,0.829 -0.869,1.34c-0.211,0.513 -0.317,1.081 -0.317,1.688c0,0.627 0.106,1.205 0.317,1.718c0.211,0.515 0.51,0.968 0.89,1.346c0.378,0.377 0.824,0.674 1.325,0.881c1.163,0.478 2.561,0.405 3.859,-0.246l0,3.355c-0.933,0.427 -1.951,0.642 -3.029,0.642c-1.092,0 -2.13,-0.194 -3.085,-0.577c-0.952,-0.383 -1.782,-0.921 -2.465,-1.596c-0.687,-0.678 -1.237,-1.5 -1.636,-2.443"/>
     </g>
     <g id="g44">
      <path fill="#000000" fill-rule="nonzero" id="path46" d="m98.40809,47.1204c-0.21,-0.488 -0.489,-0.919 -0.832,-1.281c-0.348,-0.371 -0.771,-0.664 -1.255,-0.874c-0.482,-0.208 -1,-0.314 -1.539,-0.314c-0.539,0 -1.057,0.106 -1.539,0.314c-0.485,0.21 -0.908,0.503 -1.256,0.875c-0.342,0.361 -0.621,0.792 -0.831,1.28c-0.212,0.493 -0.32,1.043 -0.32,1.636c0,0.553 0.109,1.08 0.322,1.566c0.209,0.473 0.488,0.898 0.83,1.261c0.349,0.371 0.772,0.665 1.256,0.874c0.969,0.417 2.107,0.416 3.076,0.001c0.483,-0.21 0.906,-0.504 1.256,-0.874c0.343,-0.365 0.622,-0.795 0.831,-1.281c0.214,-0.498 0.321,-1.028 0.321,-1.577c0,-0.57 -0.108,-1.11 -0.32,-1.606m4.193,-1.583c0.423,0.936 0.638,1.989 0.638,3.129c0,1.141 -0.21,2.194 -0.625,3.133c-0.416,0.937 -1.006,1.756 -1.753,2.433c-0.755,0.682 -1.66,1.223 -2.69,1.608c-1.035,0.386 -2.176,0.582 -3.389,0.582c-1.231,0 -2.38,-0.2 -3.414,-0.595c-1.032,-0.395 -1.933,-0.941 -2.677,-1.623c-0.74,-0.678 -1.326,-1.489 -1.742,-2.409c-0.414,-0.916 -0.624,-1.918 -0.624,-2.979c0,-1.183 0.211,-2.269 0.627,-3.226c0.416,-0.96 0.998,-1.795 1.729,-2.482c0.733,-0.69 1.62,-1.227 2.636,-1.6c2.069,-0.763 4.738,-0.748 6.832,0.001c1.046,0.374 1.952,0.908 2.694,1.588c0.741,0.678 1.333,1.499 1.758,2.44"/>
     </g>
     <g id="g48">
      <path fill="#000000" fill-rule="nonzero" id="path50" d="m114.86098,52.9214c0.386,0 0.758,-0.06 1.106,-0.179c0.373,-0.129 0.708,-0.345 0.997,-0.644c0.34,-0.35 0.578,-0.814 0.706,-1.377c0.115,-0.509 0.174,-1.171 0.174,-1.965l0,-7.246l4.219,0l0,9.258c0,0.772 -0.073,1.468 -0.218,2.066c-0.137,0.558 -0.396,1.073 -0.77,1.53c-0.472,0.575 -1.053,1.027 -1.726,1.342c-0.675,0.316 -1.508,0.476 -2.475,0.476c-0.917,0 -1.722,-0.143 -2.391,-0.424c-0.654,-0.274 -1.32,-0.832 -1.98,-1.658l-0.946,-1.186l0,2.938l-4.22,0l0,-14.342l4.22,0l0,7.697c0,1.148 0.284,2.057 0.845,2.704c0.579,0.671 1.406,1.01 2.459,1.01"/>
     </g>
     <g id="g52">
      <path fill="#000000" fill-rule="nonzero" id="path54" d="m137.34939,44.0041c0.314,0.643 0.472,1.383 0.472,2.2c0,1.071 -0.306,1.92 -0.936,2.595c-0.642,0.685 -1.647,1.173 -2.988,1.448c-0.541,0.125 -0.966,0.225 -1.29,0.305c-0.376,0.094 -0.662,0.202 -0.876,0.332c-0.264,0.159 -0.438,0.341 -0.533,0.554c-0.08,0.179 -0.118,0.393 -0.118,0.652c0,0.521 0.239,0.954 0.69,1.254c0.39,0.257 0.886,0.388 1.475,0.388c0.859,0 1.739,-0.202 2.623,-0.602l1.283,2.554c-1.323,0.491 -2.693,0.739 -4.08,0.739c-0.952,0 -1.827,-0.124 -2.598,-0.367c-0.758,-0.237 -1.409,-0.579 -1.937,-1.014c-0.52,-0.428 -0.922,-0.954 -1.196,-1.564c-0.28,-0.619 -0.421,-1.328 -0.421,-2.11c0,-1.047 0.271,-1.834 0.828,-2.406c0.572,-0.59 1.632,-1.05 3.155,-1.367c0.505,-0.104 0.914,-0.203 1.227,-0.296c0.362,-0.109 0.636,-0.232 0.839,-0.376c0.243,-0.171 0.41,-0.376 0.497,-0.607c0.073,-0.194 0.108,-0.417 0.108,-0.682c0,-0.513 -0.238,-0.954 -0.691,-1.275c-0.401,-0.284 -0.907,-0.429 -1.504,-0.429c-1.272,0 -2.614,0.444 -3.997,1.318l-1.432,-2.858c1.736,-0.963 3.511,-1.45 5.283,-1.45c0.99,0 1.91,0.128 2.733,0.382c0.81,0.25 1.507,0.603 2.075,1.05c0.556,0.438 0.997,0.987 1.309,1.632"/>
     </g>
     <g id="g56">
      <path fill="#000000" fill-rule="nonzero" id="path58" d="m156.44219,55.8519l-4.22,0l0,-8.147c0,-2.182 -1.142,-3.384 -3.216,-3.384c-2.074,0 -3.216,1.202 -3.216,3.384l0,8.147l-4.22,0l0,-9.198c0,-1.927 0.588,-3.322 1.795,-4.264c1.231,-0.962 3.129,-1.45 5.641,-1.45c2.511,0 4.41,0.488 5.641,1.449c1.207,0.943 1.795,2.338 1.795,4.265l0,9.198z"/>
     </g>
     <path fill="#000000" fill-rule="nonzero" id="path60" d="m161.09399,41.511l4.22,0l0,23.86l-4.22,0l0,-23.86z"/>
     <g id="g62">
      <path fill="#000000" fill-rule="nonzero" id="path64" d="m177.8344,55.8519l-3.006,0l0,4.625l-4.22,0l0,-4.625l-1.75,0l0,-3.471l1.75,0l0,-10.87l4.22,0l0,10.87l3.006,0l0,3.471z"/>
     </g>
     <path fill="#000000" fill-rule="nonzero" id="path66" d="m181.28899,41.511l4.22,0l0,14.341l-4.22,0l0,-14.341z"/>
     <g id="g68">
      <path fill="#000000" fill-rule="nonzero" id="path70" d="m185.8298,62.2985c0,0.348 -0.064,0.677 -0.192,0.981c-0.13,0.307 -0.309,0.58 -0.534,0.811c-0.223,0.23 -0.486,0.413 -0.782,0.545c-0.296,0.132 -0.602,0.195 -0.938,0.195c-0.33,0 -0.645,-0.065 -0.936,-0.195c-0.297,-0.132 -0.561,-0.315 -0.784,-0.545c-0.224,-0.231 -0.404,-0.504 -0.532,-0.811c-0.13,-0.306 -0.193,-0.627 -0.193,-0.981c0,-0.35 0.065,-0.679 0.192,-0.978c0.129,-0.31 0.308,-0.582 0.532,-0.812c0.224,-0.231 0.488,-0.415 0.785,-0.547c0.582,-0.258 1.29,-0.26 1.874,0c0.297,0.132 0.559,0.316 0.781,0.545c0.226,0.231 0.405,0.504 0.535,0.812c0.128,0.303 0.192,0.632 0.192,0.98"/>
     </g>
     <g id="g72">
      <path fill="#000000" fill-rule="nonzero" id="path74" d="m197.71301,52.9214c0.386,0 0.758,-0.06 1.107,-0.179c0.372,-0.129 0.708,-0.345 0.997,-0.644c0.34,-0.35 0.577,-0.814 0.705,-1.377c0.116,-0.509 0.175,-1.171 0.175,-1.965l0,-7.246l4.218,0l0,9.258c0,0.774 -0.073,1.469 -0.219,2.066c-0.135,0.558 -0.394,1.073 -0.769,1.53c-0.471,0.575 -1.052,1.027 -1.725,1.342c-0.676,0.316 -1.509,0.476 -2.475,0.476c-0.918,0 -1.722,-0.143 -2.392,-0.424c-0.653,-0.274 -1.319,-0.832 -1.978,-1.658l-0.947,-1.186l0,2.938l-4.22,0l0,-14.342l4.22,0l0,7.697c0,1.148 0.284,2.057 0.844,2.704c0.579,0.671 1.406,1.01 2.459,1.01"/>
     </g>
     <g id="g76">
      <path fill="#000000" fill-rule="nonzero" id="path78" d="m220.9789,47.1505c-0.209,-0.487 -0.488,-0.918 -0.829,-1.281c-0.351,-0.373 -0.775,-0.666 -1.259,-0.874c-0.48,-0.208 -0.998,-0.314 -1.537,-0.314c-0.559,0 -1.086,0.106 -1.568,0.314c-0.483,0.208 -0.906,0.502 -1.256,0.875c-0.343,0.363 -0.619,0.797 -0.82,1.289c-0.2,0.49 -0.302,1.028 -0.302,1.597c0,0.552 0.108,1.079 0.322,1.564c0.211,0.48 0.499,0.904 0.856,1.26c0.353,0.351 0.768,0.64 1.23,0.855c0.936,0.433 2.055,0.449 3.046,0.022c0.482,-0.208 0.908,-0.5 1.267,-0.868c0.355,-0.367 0.639,-0.793 0.849,-1.269c0.214,-0.488 0.323,-1.024 0.323,-1.594c0,-0.55 -0.108,-1.08 -0.322,-1.576m0.059,6.211l-0.929,1.047c-1.112,1.254 -2.443,1.864 -4.068,1.864c-1.006,0 -1.947,-0.201 -2.797,-0.596c-0.854,-0.399 -1.602,-0.952 -2.22,-1.644c-0.625,-0.7 -1.127,-1.534 -1.491,-2.479c-0.363,-0.945 -0.548,-1.986 -0.548,-3.097c0,-1.092 0.17,-2.095 0.505,-2.98c0.331,-0.879 0.805,-1.642 1.405,-2.269c0.599,-0.626 1.32,-1.12 2.144,-1.47c0.824,-0.35 1.746,-0.527 2.739,-0.527c0.453,0 0.874,0.033 1.253,0.098c0.364,0.062 0.717,0.167 1.046,0.309c0.337,0.145 0.674,0.335 1.001,0.564c0.335,0.231 0.69,0.531 1.057,0.889l0.903,0.882l0,-2.734c0,-1.273 -0.348,-2.294 -1.033,-3.033c-0.695,-0.751 -1.686,-1.132 -2.943,-1.132c-1.667,0 -2.471,0.769 -2.859,1.533l-4.93,0c0.161,-0.533 0.397,-1.036 0.704,-1.505c0.43,-0.653 0.989,-1.233 1.663,-1.724c0.682,-0.494 1.489,-0.887 2.398,-1.168c1.731,-0.533 4.005,-0.568 5.789,-0.085c0.834,0.228 1.59,0.542 2.245,0.934c0.65,0.391 1.211,0.856 1.667,1.38c0.45,0.516 0.784,1.08 0.994,1.676c0.16,0.473 0.289,1.047 0.383,1.699c0.093,0.653 0.141,1.405 0.141,2.236l0,13.822l-4.219,0l0,-2.49z"/>
     </g>
     <path fill="#000000" fill-rule="nonzero" id="path80" d="m228.09999,36.54l15.439,0l0,2.016l-15.439,0l0,-2.016z"/>
     <g id="g82">
      <path fill="#000000" fill-rule="nonzero" id="path84" d="m4.02269,199.76801c-0.74,14.761 0.733,29.45 5.736,43.155c5.008,13.717 9.507,27.756 17.713,40.276c10.14,15.47 20.456,30.722 33.198,44.187c2.586,2.732 5.048,6.688 9.715,4.2c2.809,-1.498 1.958,-6.108 -2.457,-11.106c-11.157,-12.629 -21.37,-26.038 -28.826,-41.083c-10.85,-21.891 -20.912,-44.322 -19.953,-69.611c0.782,-20.63 2.257,-41.233 3.366,-61.851c0.181,-3.365 1.769,-7.619 -3.502,-8.619c-4.361,-0.827 -11.018,4.324 -11.431,8.715c-0.808,8.607 -1.5,17.228 -2.088,25.853c-0.587,8.621 -0.988,17.255 -1.471,25.884"/>
     </g>
     <g id="g86">
      <path fill="#000000" fill-rule="nonzero" id="path88" d="m128.7252,243.6602c-0.385,12.888 -9.342,21.347 -21.63,26.535c-7.741,3.269 -16.208,4.813 -24.344,7.148c-2.586,0.742 -6.214,1.339 -5.154,4.783c0.542,1.756 4.129,3.767 6.234,3.656c13.291,-0.701 26.452,-2.913 37.821,-10.224c6.399,-4.116 13.069,-8.975 17.247,-15.112c6.713,-9.859 6.635,-21.357 0.42,-31.732c-4.144,-6.916 -9.271,-13.396 -14.77,-19.317c-12.893,-13.88 -26.234,-27.347 -39.476,-40.9c-6.499,-6.651 -13.174,-13.131 -19.788,-19.67c-2.246,-2.221 -5.242,-3.828 -7.387,-0.964c-0.967,1.29 -0.038,5.317 1.381,6.87c12.22,13.379 25.072,26.19 37.082,39.748c9.53,10.759 18.549,22.037 26.947,33.695c3.065,4.254 3.683,10.271 5.417,15.484"/>
     </g>
     <g id="g90">
      <path fill="#000000" fill-rule="nonzero" id="path92" d="m135.47039,424.1543c2.458,-0.09 6.638,-0.56 10.617,-1.751c1.378,-0.413 3.345,-2.919 3.061,-3.889c-0.452,-1.544 -2.394,-2.95 -4.031,-3.752c-1.236,-0.605 -2.994,-0.33 -4.493,-0.179c-10.902,1.096 -21.961,-0.279 -31.197,-5.299c-13.936,-7.576 -22.735,-18.947 -28.535,-35.34c-1.683,-4.756 -3.268,-9.269 -5.749,-13.431c-2.238,-3.755 -6.299,-5.188 -10.671,-4.044c-4.361,1.141 -4.931,4.237 -5.197,7.824c-0.212,2.865 0.26,5.7 1.118,7.771c8.003,19.336 18.615,36.192 39.239,44.848c11.052,4.639 22.316,7.739 35.838,7.242"/>
     </g>
     <g id="g94">
      <path fill="#000000" fill-rule="nonzero" id="path96" d="m151.68548,384.60709c-0.187,6.657 6.104,11.52 10.109,16.17c16.136,18.737 37.22,29.499 60.719,35.884c4.54,1.233 9.366,1.557 14.089,1.904c1.612,0.118 4.584,0.18 4.973,-1.522c0.409,-1.793 -2.516,-3.446 -4.003,-3.675c-11.141,-1.709 -20.848,-7.008 -30.622,-12.001c-18.18,-9.286 -33.882,-21.552 -45.309,-38.848c-1.148,-1.737 -4.012,-3.102 -6.112,-3.146c-1.144,-0.025 -3.771,2.625 -3.844,5.234"/>
     </g>
     <g id="g98">
      <path fill="#000000" fill-rule="nonzero" id="path100" d="m137.95499,350.345c1.349,2.35 3.972,0.557 5.153,-1.282c2.233,-3.476 4.451,-7 6.243,-10.713c4.868,-10.09 9.697,-20.208 14.185,-30.472c3.618,-8.276 6.849,-16.73 9.991,-25.203c1.598,-4.307 2.364,-8.922 3.949,-13.236c6.179,-16.808 8.114,-34.314 8.718,-52.024c0.337,-9.897 0.587,-19.811 0.362,-29.714c-0.012,-0.52 -0.068,-1.522 -0.09,-2.012c-0.567,-12.911 -1.33,-25.207 -3.026,-38.019c-0.805,-6.081 -1.512,-13.001 -2.494,-19.056c-1.771,-10.917 -4.651,-23.657 -7.334,-40.89c-0.28,-1.802 -1.145,-2.659 -2.922,-2.978c-3.874,-0.696 -7.722,-1.539 -11.58,-2.321c-0.769,0.068 -1.538,0.135 -2.306,0.203c3.026,16.855 6.378,33.659 8.984,50.579c2.416,15.69 3.613,31.57 6.133,47.24c2.13,13.239 1.953,26.494 1.753,39.746c-0.324,21.622 -5.24,42.469 -11.187,63.191c-5.318,18.53 -13.393,35.87 -20.962,53.464c-1.617,3.76 -3.284,7.675 -3.722,11.768c-0.062,0.575 -0.136,1.227 0.152,1.729"/>
     </g>
    </g>
   </g>
  </g>
 </g>
</svg>